<svg xmlns="http://www.w3.org/2000/svg" width="154" height="44" fill="none" viewBox="0 0 154 44"><g clip-path="url(#clip0_1_4)"><rect width="32" height="32" y="6" fill="#007BFF" rx="16"/><path fill="#fff" d="M25 6C24.7348 6 24.4804 6.10536 24.2929 6.29289C24.1054 6.48043 24 6.73478 24 7C24 7.26522 24.1054 7.51957 24.2929 7.70711C24.4804 7.89464 24.7348 8 25 8C25.5304 8 26.0391 8.21071 26.4142 8.58579C26.7893 8.96086 27 9.46957 27 10V17H5V10C5 9.46957 5.21071 8.96086 5.58579 8.58579C5.96086 8.21071 6.46957 8 7 8C7.26522 8 7.51957 7.89464 7.70711 7.70711C7.89464 7.51957 8 7.26522 8 7C8 6.73478 7.89464 6.48043 7.70711 6.29289C7.51957 6.10536 7.26522 6 7 6C5.93913 6 4.92172 6.42143 4.17157 7.17157C3.42143 7.92172 3 8.93913 3 10V21.5C3 22.9587 3.57946 24.3576 4.61091 25.3891C5.64236 26.4205 7.04131 27 8.5 27C9.95869 27 11.3576 26.4205 12.3891 25.3891C13.4205 24.3576 14 22.9587 14 21.5V19H18V21.5C18 22.9587 18.5795 24.3576 19.6109 25.3891C20.6424 26.4205 22.0413 27 23.5 27C24.9587 27 26.3576 26.4205 27.3891 25.3891C28.4205 24.3576 29 22.9587 29 21.5V10C29 8.93913 28.5786 7.92172 27.8284 7.17157C27.0783 6.42143 26.0609 6 25 6ZM26.5788 23.1637L22.4137 19H27V21.5C27.0009 22.0811 26.8561 22.6531 26.5788 23.1637ZM5 21.5V19.4137L10.1637 24.5788C9.63063 24.8668 9.03186 25.0115 8.42604 24.9987C7.82021 24.9859 7.22809 24.816 6.70762 24.5057C6.18715 24.1954 5.75616 23.7552 5.45683 23.2284C5.1575 22.7015 5.00009 22.106 5 21.5ZM12 21.5C12.0009 22.0811 11.8561 22.6531 11.5787 23.1637L7.41375 19H12V21.5ZM20 21.5V19.4137L25.1637 24.5788C24.6306 24.8668 24.0319 25.0115 23.426 24.9987C22.8202 24.9859 22.2281 24.816 21.7076 24.5057C21.1871 24.1954 20.7562 23.7552 20.4568 23.2284C20.1575 22.7015 20.0001 22.106 20 21.5Z"/></g><path fill="#fff" d="M44.24 34V10.96H53.344C53.568 10.96 53.8347 10.9707 54.144 10.992C54.4533 11.0027 54.752 11.0347 55.04 11.088C56.288 11.28 57.3333 11.7067 58.176 12.368C59.0293 13.0293 59.6693 13.8667 60.096 14.88C60.5227 15.8827 60.736 16.9973 60.736 18.224C60.736 19.44 60.5173 20.5547 60.08 21.568C59.6533 22.5707 59.0133 23.408 58.16 24.08C57.3173 24.7413 56.2773 25.168 55.04 25.36C54.752 25.4027 54.4533 25.4347 54.144 25.456C53.8347 25.4773 53.568 25.488 53.344 25.488H47.088V34H44.24ZM47.088 22.784H53.248C53.4507 22.784 53.68 22.7733 53.936 22.752C54.2027 22.7307 54.4533 22.6933 54.688 22.64C55.424 22.4693 56.0213 22.16 56.48 21.712C56.9493 21.2533 57.2907 20.72 57.504 20.112C57.7173 19.4933 57.824 18.864 57.824 18.224C57.824 17.584 57.7173 16.96 57.504 16.352C57.2907 15.7333 56.9493 15.1947 56.48 14.736C56.0213 14.2773 55.424 13.968 54.688 13.808C54.4533 13.744 54.2027 13.7067 53.936 13.696C53.68 13.6747 53.4507 13.664 53.248 13.664H47.088V22.784ZM64.2475 13.664V10.72H67.0955V13.664H64.2475ZM64.2475 34V16.72H67.0955V34H64.2475ZM84.2003 34V25.344C84.2003 24.5227 84.1256 23.7333 83.9763 22.976C83.8376 22.2187 83.5869 21.5413 83.2243 20.944C82.8723 20.336 82.3923 19.856 81.7843 19.504C81.1869 19.152 80.4296 18.976 79.5123 18.976C78.7976 18.976 78.1469 19.0987 77.5603 19.344C76.9843 19.5787 76.4883 19.9413 76.0723 20.432C75.6563 20.9227 75.3309 21.5413 75.0963 22.288C74.8723 23.024 74.7603 23.8933 74.7603 24.896L72.8883 24.32C72.8883 22.6453 73.1869 21.2107 73.7843 20.016C74.3923 18.8107 75.2403 17.888 76.3283 17.248C77.4269 16.5973 78.7176 16.272 80.2003 16.272C81.3203 16.272 82.2749 16.448 83.0643 16.8C83.8536 17.152 84.5096 17.6213 85.0323 18.208C85.5549 18.784 85.9656 19.4347 86.2643 20.16C86.5629 20.8747 86.7709 21.6053 86.8883 22.352C87.0163 23.088 87.0803 23.7867 87.0803 24.448V34H84.2003ZM71.8803 34V16.72H74.4403V21.344H74.7603V34H71.8803ZM98.232 42.16C97.3253 42.16 96.44 42.0213 95.576 41.744C94.712 41.4667 93.9173 41.0453 93.192 40.48C92.4773 39.9253 91.88 39.2213 91.4 38.368L94.008 36.992C94.4347 37.8347 95.0373 38.448 95.816 38.832C96.6053 39.216 97.416 39.408 98.248 39.408C99.3467 39.408 100.259 39.2053 100.984 38.8C101.709 38.4053 102.243 37.8133 102.584 37.024C102.936 36.2347 103.107 35.2533 103.096 34.08V29.36H103.432V16.72H105.96V34.112C105.96 34.5813 105.944 35.0347 105.912 35.472C105.891 35.9093 105.837 36.3413 105.752 36.768C105.528 37.9947 105.085 39.0027 104.424 39.792C103.763 40.592 102.909 41.184 101.864 41.568C100.819 41.9627 99.608 42.16 98.232 42.16ZM98.024 34.48C96.4133 34.48 95.032 34.08 93.88 33.28C92.728 32.4693 91.8373 31.376 91.208 30C90.5893 28.624 90.28 27.072 90.28 25.344C90.28 23.616 90.5893 22.064 91.208 20.688C91.8373 19.312 92.728 18.2293 93.88 17.44C95.032 16.64 96.408 16.24 98.008 16.24C99.64 16.24 101.011 16.6347 102.12 17.424C103.229 18.2133 104.067 19.296 104.632 20.672C105.208 22.048 105.496 23.6053 105.496 25.344C105.496 27.0613 105.208 28.6133 104.632 30C104.067 31.376 103.229 32.4693 102.12 33.28C101.011 34.08 99.6453 34.48 98.024 34.48ZM98.376 31.872C99.5387 31.872 100.493 31.5947 101.24 31.04C101.987 30.4747 102.536 29.7013 102.888 28.72C103.251 27.728 103.432 26.6027 103.432 25.344C103.432 24.064 103.251 22.9387 102.888 21.968C102.536 20.9867 101.992 20.224 101.256 19.68C100.52 19.1253 99.5867 18.848 98.456 18.848C97.2827 18.848 96.312 19.136 95.544 19.712C94.7867 20.288 94.2213 21.0667 93.848 22.048C93.4853 23.0293 93.304 24.128 93.304 25.344C93.304 26.5707 93.4907 27.68 93.864 28.672C94.2373 29.6533 94.7973 30.432 95.544 31.008C96.3013 31.584 97.2453 31.872 98.376 31.872ZM110.428 34V10.96H119.532C119.756 10.96 120.022 10.9707 120.332 10.992C120.641 11.0027 120.94 11.0347 121.228 11.088C122.476 11.28 123.521 11.7067 124.364 12.368C125.217 13.0293 125.857 13.8667 126.284 14.88C126.71 15.8827 126.924 16.9973 126.924 18.224C126.924 19.44 126.705 20.5547 126.267 21.568C125.841 22.5707 125.201 23.408 124.347 24.08C123.505 24.7413 122.465 25.168 121.228 25.36C120.94 25.4027 120.641 25.4347 120.332 25.456C120.022 25.4773 119.756 25.488 119.532 25.488H113.276V34H110.428ZM113.276 22.784H119.436C119.638 22.784 119.868 22.7733 120.124 22.752C120.39 22.7307 120.641 22.6933 120.876 22.64C121.612 22.4693 122.209 22.16 122.668 21.712C123.137 21.2533 123.478 20.72 123.692 20.112C123.905 19.4933 124.012 18.864 124.012 18.224C124.012 17.584 123.905 16.96 123.692 16.352C123.478 15.7333 123.137 15.1947 122.668 14.736C122.209 14.2773 121.612 13.968 120.876 13.808C120.641 13.744 120.39 13.7067 120.124 13.696C119.868 13.6747 119.638 13.664 119.436 13.664H113.276V22.784ZM134.371 34.48C133.08 34.48 131.997 34.2453 131.123 33.776C130.259 33.296 129.603 32.6667 129.155 31.888C128.717 31.1093 128.499 30.256 128.499 29.328C128.499 28.4213 128.669 27.6373 129.011 26.976C129.363 26.304 129.853 25.7493 130.483 25.312C131.112 24.864 131.864 24.512 132.739 24.256C133.56 24.032 134.477 23.84 135.491 23.68C136.515 23.5093 137.549 23.3547 138.595 23.216C139.64 23.0773 140.616 22.944 141.523 22.816L140.499 23.408C140.531 21.872 140.221 20.736 139.571 20C138.931 19.264 137.821 18.896 136.243 18.896C135.197 18.896 134.28 19.136 133.491 19.616C132.712 20.0853 132.163 20.8533 131.843 21.92L129.139 21.104C129.555 19.5893 130.36 18.4 131.555 17.536C132.749 16.672 134.323 16.24 136.275 16.24C137.843 16.24 139.187 16.5227 140.307 17.088C141.437 17.6427 142.248 18.4853 142.739 19.616C142.984 20.1493 143.139 20.7307 143.203 21.36C143.267 21.9787 143.299 22.6293 143.299 23.312V34H140.771V29.856L141.363 30.24C140.712 31.6373 139.8 32.6933 138.627 33.408C137.464 34.1227 136.045 34.48 134.371 34.48ZM134.803 32.096C135.827 32.096 136.712 31.9147 137.459 31.552C138.216 31.1787 138.824 30.6933 139.283 30.096C139.741 29.488 140.04 28.8267 140.179 28.112C140.339 27.5787 140.424 26.9867 140.435 26.336C140.456 25.6747 140.467 25.168 140.467 24.816L141.459 25.248C140.531 25.376 139.619 25.4987 138.723 25.616C137.827 25.7333 136.979 25.8613 136.179 26C135.379 26.128 134.659 26.2827 134.019 26.464C133.549 26.6133 133.107 26.8053 132.691 27.04C132.285 27.2747 131.955 27.5787 131.699 27.952C131.453 28.3147 131.331 28.768 131.331 29.312C131.331 29.7813 131.448 30.2293 131.683 30.656C131.928 31.0827 132.301 31.4293 132.803 31.696C133.315 31.9627 133.981 32.096 134.803 32.096ZM147.779 34V10.48H150.627V34H147.779Z"/><defs><clipPath id="clip0_1_4"><rect width="32" height="32" y="6" fill="#fff" rx="16"/></clipPath></defs></svg>