<svg width="32" height="32" viewBox="0 0 32 32" fill="none" xmlns="http://www.w3.org/2000/svg">
<g clip-path="url(#clip0_1_15)">
<rect width="32" height="32" rx="16" fill="#28A745"/>
<path d="M25 0C24.7348 0 24.4804 0.105357 24.2929 0.292893C24.1054 0.48043 24 0.734784 24 1C24 1.26522 24.1054 1.51957 24.2929 1.70711C24.4804 1.89464 24.7348 2 25 2C25.5304 2 26.0391 2.21071 26.4142 2.58579C26.7893 2.96086 27 3.46957 27 4V11H5V4C5 3.46957 5.21071 2.96086 5.58579 2.58579C5.96086 2.21071 6.46957 2 7 2C7.26522 2 7.51957 1.89464 7.70711 1.70711C7.89464 1.51957 8 1.26522 8 1C8 0.734784 7.89464 0.48043 7.70711 0.292893C7.51957 0.105357 7.26522 0 7 0C5.93913 0 4.92172 0.421427 4.17157 1.17157C3.42143 1.92172 3 2.93913 3 4V15.5C3 16.9587 3.57946 18.3576 4.61091 19.3891C5.64236 20.4205 7.04131 21 8.5 21C9.95869 21 11.3576 20.4205 12.3891 19.3891C13.4205 18.3576 14 16.9587 14 15.5V13H18V15.5C18 16.9587 18.5795 18.3576 19.6109 19.3891C20.6424 20.4205 22.0413 21 23.5 21C24.9587 21 26.3576 20.4205 27.3891 19.3891C28.4205 18.3576 29 16.9587 29 15.5V4C29 2.93913 28.5786 1.92172 27.8284 1.17157C27.0783 0.421427 26.0609 0 25 0ZM26.5788 17.1637L22.4137 13H27V15.5C27.0009 16.0811 26.8561 16.6531 26.5788 17.1637ZM5 15.5V13.4137L10.1637 18.5788C9.63063 18.8668 9.03186 19.0115 8.42604 18.9987C7.82021 18.9859 7.22809 18.816 6.70762 18.5057C6.18715 18.1954 5.75616 17.7552 5.45683 17.2284C5.1575 16.7015 5.00009 16.106 5 15.5ZM12 15.5C12.0009 16.0811 11.8561 16.6531 11.5787 17.1637L7.41375 13H12V15.5ZM20 15.5V13.4137L25.1637 18.5788C24.6306 18.8668 24.0319 19.0115 23.426 18.9987C22.8202 18.9859 22.2281 18.816 21.7076 18.5057C21.1871 18.1954 20.7562 17.7552 20.4568 17.2284C20.1575 16.7015 20.0001 16.106 20 15.5Z" fill="white"/>
</g>
<defs>
<clipPath id="clip0_1_15">
<rect width="32" height="32" rx="16" fill="white"/>
</clipPath>
</defs>
</svg>
